<svg xmlns="http://www.w3.org/2000/svg" version="1.1" xmlns:xlink="http://www.w3.org/1999/xlink" xmlns:svgjs="http://svgjs.com/svgjs" width="1440" height="560" preserveAspectRatio="none" viewBox="0 0 1440 560"><g mask="url(&quot;#SvgjsMask1000&quot;)" fill="none"><rect width="1440" height="560" x="0" y="0" fill="#0e2a47"></rect><path d="M238.91 374.8 a18.57 18.57 0 1 0 37.14 0 a18.57 18.57 0 1 0 -37.14 0z" fill="#d3b714"></path><path d="M1143.59 512.51a27.42 27.42 0 1 0-41.59-35.73z" stroke="#e73635"></path><path d="M941.53 226.96a6.73 6.73 0 1 0 13.46 0.12z" stroke="#d3b714"></path><path d="M1249.94 15.25L1295.14 15.25L1295.14 37.71L1249.94 37.71z" fill="#d3b714"></path><path d="M1141.12 272.79a19.8 19.8 0 1 0-28.52-27.47z" stroke="#037b0b"></path><path d="M16.91 547.56L55.53 547.56L55.53 586.18L16.91 586.18z" stroke="#e73635"></path><path d="M1320.16 308.08L1329.63 308.08L1329.63 318.89L1320.16 318.89z" fill="#d3b714"></path><path d="M550.21 30.83L561.37 30.83L561.37 41.99L550.21 41.99z" fill="#037b0b"></path><path d="M1062.65 502.97 a3.12 3.12 0 1 0 6.24 0 a3.12 3.12 0 1 0 -6.24 0z" fill="#037b0b"></path><path d="M1302.96 61.91 a22.88 22.88 0 1 0 45.76 0 a22.88 22.88 0 1 0 -45.76 0z" fill="#037b0b"></path><path d="M830.28 385.01a27.13 27.13 0 1 0 40.07-36.58z" fill="#e73635"></path><path d="M1355.1 238.21a36.55 36.55 0 1 0 63.86 35.58z" stroke="#e73635"></path><path d="M1317.83 208.75L1320.13 208.75L1320.13 237.71L1317.83 237.71z" stroke="#d3b714"></path><path d="M772.23 252.79L803.19 252.79L803.19 283.75L772.23 283.75z" stroke="#037b0b"></path><path d="M239.93 249.81a20.07 20.07 0 1 0 17.88-35.94z" fill="#e73635"></path><path d="M943.5 104.98L965.67 104.98L965.67 150.58L943.5 150.58z" stroke="#e73635"></path><path d="M191.65 107.19L237.7 107.19L237.7 158.43L191.65 158.43z" stroke="#e73635"></path><path d="M969.83 293.69L980.08 293.69L980.08 329.62L969.83 329.62z" stroke="#d3b714"></path><path d="M1258.96 56.88 a56 56 0 1 0 112 0 a56 56 0 1 0 -112 0z" fill="#e73635"></path><path d="M1007.26 220.02a30 30 0 1 0 40.69 44.1z" stroke="#d3b714"></path><path d="M525.38 292.9L576.2 292.9L576.2 329.68L525.38 329.68z" fill="#037b0b"></path><path d="M1072.18 114.62L1082.24 114.62L1082.24 124.68L1072.18 124.68z" fill="#037b0b"></path><path d="M1286.3 240.11a28.77 28.77 0 1 0-48.86-30.39z" fill="#e73635"></path><path d="M1061.06 500.54 a26.31 26.31 0 1 0 52.62 0 a26.31 26.31 0 1 0 -52.62 0z" stroke="#e73635"></path><path d="M781.83 460.97a34.93 34.93 0 1 0-14.79 68.27z" stroke="#d3b714"></path><path d="M1381.61 546.24L1409.13 546.24L1409.13 577.88L1381.61 577.88z" fill="#e73635"></path><path d="M1198.48 373.14L1200.51 373.14L1200.51 384.78L1198.48 384.78z" stroke="#d3b714"></path><path d="M412.93 163.58 a4.23 4.23 0 1 0 8.46 0 a4.23 4.23 0 1 0 -8.46 0z" stroke="#037b0b"></path><path d="M1003.13 390.24L1037.25 390.24L1037.25 406.67L1003.13 406.67z" fill="#037b0b"></path><path d="M1082.46 446.47a14.71 14.71 0 1 0 29.02-4.82z" stroke="#037b0b"></path><path d="M542.59 494.3L569.78 494.3L569.78 533.56L542.59 533.56z" stroke="#e73635"></path><path d="M313 237.23L313.16 237.23L313.16 286.18L313 286.18z" stroke="#037b0b"></path><path d="M6.11 298.57a13.64 13.64 0 1 0 15.8 22.24z" stroke="#037b0b"></path></g><defs><mask id="SvgjsMask1000"><rect width="1440" height="560" fill="#ffffff"></rect></mask></defs></svg>