<svg xmlns="http://www.w3.org/2000/svg" version="1.1" xmlns:xlink="http://www.w3.org/1999/xlink" xmlns:svgjs="http://svgjs.com/svgjs" width="1440" height="560" preserveAspectRatio="none" viewBox="0 0 1440 560"><g mask="url(&quot;#SvgjsMask1000&quot;)" fill="none"><rect width="1440" height="560" x="0" y="0" fill="#0e2a47"></rect><path d="M63.87 199.48L128.82 236.98L128.82 311.98L63.87 349.48L-1.08 311.98L-1.08 236.98zM128.82 311.98L193.78 349.48L193.78 424.48L128.82 461.98L63.87 424.48L63.87 349.48zM128.82 536.98L193.78 574.48L193.78 649.48L128.82 686.98L63.87 649.48L63.87 574.48zM193.78 199.48L258.73 236.98L258.73 311.98L193.78 349.48L128.82 311.98L128.82 236.98zM258.73 536.98L323.69 574.48L323.69 649.48L258.73 686.98L193.78 649.48L193.78 574.48zM323.69 -25.52L388.64 11.98L388.64 86.98L323.69 124.48L258.73 86.98L258.73 11.98zM388.64 86.98L453.59 124.48L453.59 199.48L388.64 236.98L323.69 199.48L323.69 124.48zM388.64 311.98L453.59 349.48L453.59 424.48L388.64 461.98L323.69 424.48L323.69 349.48zM323.69 424.48L388.64 461.98L388.64 536.98L323.69 574.48L258.73 536.98L258.73 461.98zM648.45 86.98L713.41 124.48L713.41 199.48L648.45 236.98L583.5 199.48L583.5 124.48zM583.5 424.48L648.45 461.98L648.45 536.98L583.5 574.48L518.55 536.98L518.55 461.98zM648.45 536.98L713.41 574.48L713.41 649.48L648.45 686.98L583.5 649.48L583.5 574.48zM713.41 -25.52L778.36 11.98L778.36 86.98L713.41 124.48L648.45 86.98L648.45 11.98zM713.41 424.48L778.36 461.98L778.36 536.98L713.41 574.48L648.45 536.98L648.45 461.98zM843.31 424.48L908.27 461.98L908.27 536.98L843.31 574.48L778.36 536.98L778.36 461.98zM973.22 -25.52L1038.18 11.98L1038.18 86.98L973.22 124.48L908.27 86.98L908.27 11.98zM973.22 199.48L1038.18 236.98L1038.18 311.98L973.22 349.48L908.27 311.98L908.27 236.98zM1038.18 536.98L1103.13 574.48L1103.13 649.48L1038.18 686.98L973.22 649.48L973.22 574.48zM1168.08 86.98L1233.04 124.48L1233.04 199.48L1168.08 236.98L1103.13 199.48L1103.13 124.48zM1168.08 536.98L1233.04 574.48L1233.04 649.48L1168.08 686.98L1103.13 649.48L1103.13 574.48zM1297.99 86.98L1362.94 124.48L1362.94 199.48L1297.99 236.98L1233.04 199.48L1233.04 124.48zM1297.99 536.98L1362.94 574.48L1362.94 649.48L1297.99 686.98L1233.04 649.48L1233.04 574.48zM1427.9 311.98L1492.85 349.48L1492.85 424.48L1427.9 461.98L1362.94 424.48L1362.94 349.48zM1362.94 424.48L1427.9 461.98L1427.9 536.98L1362.94 574.48L1297.99 536.98L1297.99 461.98zM1492.85 -25.52L1557.81 11.98L1557.81 86.98L1492.85 124.48L1427.9 86.98L1427.9 11.98z" stroke="#03305d" stroke-width="2"></path><path d="M56.37 199.48 a7.5 7.5 0 1 0 15 0 a7.5 7.5 0 1 0 -15 0zM121.32 236.98 a7.5 7.5 0 1 0 15 0 a7.5 7.5 0 1 0 -15 0zM121.32 311.98 a7.5 7.5 0 1 0 15 0 a7.5 7.5 0 1 0 -15 0zM56.37 349.48 a7.5 7.5 0 1 0 15 0 a7.5 7.5 0 1 0 -15 0zM-8.58 311.98 a7.5 7.5 0 1 0 15 0 a7.5 7.5 0 1 0 -15 0zM-8.58 236.98 a7.5 7.5 0 1 0 15 0 a7.5 7.5 0 1 0 -15 0zM186.28 349.48 a7.5 7.5 0 1 0 15 0 a7.5 7.5 0 1 0 -15 0zM186.28 424.48 a7.5 7.5 0 1 0 15 0 a7.5 7.5 0 1 0 -15 0zM121.32 461.98 a7.5 7.5 0 1 0 15 0 a7.5 7.5 0 1 0 -15 0zM56.37 424.48 a7.5 7.5 0 1 0 15 0 a7.5 7.5 0 1 0 -15 0zM121.32 536.98 a7.5 7.5 0 1 0 15 0 a7.5 7.5 0 1 0 -15 0zM186.28 574.48 a7.5 7.5 0 1 0 15 0 a7.5 7.5 0 1 0 -15 0zM186.28 649.48 a7.5 7.5 0 1 0 15 0 a7.5 7.5 0 1 0 -15 0zM121.32 686.98 a7.5 7.5 0 1 0 15 0 a7.5 7.5 0 1 0 -15 0zM56.37 649.48 a7.5 7.5 0 1 0 15 0 a7.5 7.5 0 1 0 -15 0zM56.37 574.48 a7.5 7.5 0 1 0 15 0 a7.5 7.5 0 1 0 -15 0zM186.28 199.48 a7.5 7.5 0 1 0 15 0 a7.5 7.5 0 1 0 -15 0zM251.23 236.98 a7.5 7.5 0 1 0 15 0 a7.5 7.5 0 1 0 -15 0zM251.23 311.98 a7.5 7.5 0 1 0 15 0 a7.5 7.5 0 1 0 -15 0zM251.23 536.98 a7.5 7.5 0 1 0 15 0 a7.5 7.5 0 1 0 -15 0zM316.19 574.48 a7.5 7.5 0 1 0 15 0 a7.5 7.5 0 1 0 -15 0zM316.19 649.48 a7.5 7.5 0 1 0 15 0 a7.5 7.5 0 1 0 -15 0zM251.23 686.98 a7.5 7.5 0 1 0 15 0 a7.5 7.5 0 1 0 -15 0zM316.19 -25.52 a7.5 7.5 0 1 0 15 0 a7.5 7.5 0 1 0 -15 0zM381.14 11.98 a7.5 7.5 0 1 0 15 0 a7.5 7.5 0 1 0 -15 0zM381.14 86.98 a7.5 7.5 0 1 0 15 0 a7.5 7.5 0 1 0 -15 0zM316.19 124.48 a7.5 7.5 0 1 0 15 0 a7.5 7.5 0 1 0 -15 0zM251.23 86.98 a7.5 7.5 0 1 0 15 0 a7.5 7.5 0 1 0 -15 0zM251.23 11.98 a7.5 7.5 0 1 0 15 0 a7.5 7.5 0 1 0 -15 0zM446.09 124.48 a7.5 7.5 0 1 0 15 0 a7.5 7.5 0 1 0 -15 0zM446.09 199.48 a7.5 7.5 0 1 0 15 0 a7.5 7.5 0 1 0 -15 0zM381.14 236.98 a7.5 7.5 0 1 0 15 0 a7.5 7.5 0 1 0 -15 0zM316.19 199.48 a7.5 7.5 0 1 0 15 0 a7.5 7.5 0 1 0 -15 0zM381.14 311.98 a7.5 7.5 0 1 0 15 0 a7.5 7.5 0 1 0 -15 0zM446.09 349.48 a7.5 7.5 0 1 0 15 0 a7.5 7.5 0 1 0 -15 0zM446.09 424.48 a7.5 7.5 0 1 0 15 0 a7.5 7.5 0 1 0 -15 0zM381.14 461.98 a7.5 7.5 0 1 0 15 0 a7.5 7.5 0 1 0 -15 0zM316.19 424.48 a7.5 7.5 0 1 0 15 0 a7.5 7.5 0 1 0 -15 0zM316.19 349.48 a7.5 7.5 0 1 0 15 0 a7.5 7.5 0 1 0 -15 0zM381.14 536.98 a7.5 7.5 0 1 0 15 0 a7.5 7.5 0 1 0 -15 0zM251.23 461.98 a7.5 7.5 0 1 0 15 0 a7.5 7.5 0 1 0 -15 0zM640.95 86.98 a7.5 7.5 0 1 0 15 0 a7.5 7.5 0 1 0 -15 0zM705.91 124.48 a7.5 7.5 0 1 0 15 0 a7.5 7.5 0 1 0 -15 0zM705.91 199.48 a7.5 7.5 0 1 0 15 0 a7.5 7.5 0 1 0 -15 0zM640.95 236.98 a7.5 7.5 0 1 0 15 0 a7.5 7.5 0 1 0 -15 0zM576 199.48 a7.5 7.5 0 1 0 15 0 a7.5 7.5 0 1 0 -15 0zM576 124.48 a7.5 7.5 0 1 0 15 0 a7.5 7.5 0 1 0 -15 0zM576 424.48 a7.5 7.5 0 1 0 15 0 a7.5 7.5 0 1 0 -15 0zM640.95 461.98 a7.5 7.5 0 1 0 15 0 a7.5 7.5 0 1 0 -15 0zM640.95 536.98 a7.5 7.5 0 1 0 15 0 a7.5 7.5 0 1 0 -15 0zM576 574.48 a7.5 7.5 0 1 0 15 0 a7.5 7.5 0 1 0 -15 0zM511.05 536.98 a7.5 7.5 0 1 0 15 0 a7.5 7.5 0 1 0 -15 0zM511.05 461.98 a7.5 7.5 0 1 0 15 0 a7.5 7.5 0 1 0 -15 0zM705.91 574.48 a7.5 7.5 0 1 0 15 0 a7.5 7.5 0 1 0 -15 0zM705.91 649.48 a7.5 7.5 0 1 0 15 0 a7.5 7.5 0 1 0 -15 0zM640.95 686.98 a7.5 7.5 0 1 0 15 0 a7.5 7.5 0 1 0 -15 0zM576 649.48 a7.5 7.5 0 1 0 15 0 a7.5 7.5 0 1 0 -15 0zM705.91 -25.52 a7.5 7.5 0 1 0 15 0 a7.5 7.5 0 1 0 -15 0zM770.86 11.98 a7.5 7.5 0 1 0 15 0 a7.5 7.5 0 1 0 -15 0zM770.86 86.98 a7.5 7.5 0 1 0 15 0 a7.5 7.5 0 1 0 -15 0zM640.95 11.98 a7.5 7.5 0 1 0 15 0 a7.5 7.5 0 1 0 -15 0zM705.91 424.48 a7.5 7.5 0 1 0 15 0 a7.5 7.5 0 1 0 -15 0zM770.86 461.98 a7.5 7.5 0 1 0 15 0 a7.5 7.5 0 1 0 -15 0zM770.86 536.98 a7.5 7.5 0 1 0 15 0 a7.5 7.5 0 1 0 -15 0zM835.81 424.48 a7.5 7.5 0 1 0 15 0 a7.5 7.5 0 1 0 -15 0zM900.77 461.98 a7.5 7.5 0 1 0 15 0 a7.5 7.5 0 1 0 -15 0zM900.77 536.98 a7.5 7.5 0 1 0 15 0 a7.5 7.5 0 1 0 -15 0zM835.81 574.48 a7.5 7.5 0 1 0 15 0 a7.5 7.5 0 1 0 -15 0zM965.72 -25.52 a7.5 7.5 0 1 0 15 0 a7.5 7.5 0 1 0 -15 0zM1030.68 11.98 a7.5 7.5 0 1 0 15 0 a7.5 7.5 0 1 0 -15 0zM1030.68 86.98 a7.5 7.5 0 1 0 15 0 a7.5 7.5 0 1 0 -15 0zM965.72 124.48 a7.5 7.5 0 1 0 15 0 a7.5 7.5 0 1 0 -15 0zM900.77 86.98 a7.5 7.5 0 1 0 15 0 a7.5 7.5 0 1 0 -15 0zM900.77 11.98 a7.5 7.5 0 1 0 15 0 a7.5 7.5 0 1 0 -15 0zM965.72 199.48 a7.5 7.5 0 1 0 15 0 a7.5 7.5 0 1 0 -15 0zM1030.68 236.98 a7.5 7.5 0 1 0 15 0 a7.5 7.5 0 1 0 -15 0zM1030.68 311.98 a7.5 7.5 0 1 0 15 0 a7.5 7.5 0 1 0 -15 0zM965.72 349.48 a7.5 7.5 0 1 0 15 0 a7.5 7.5 0 1 0 -15 0zM900.77 311.98 a7.5 7.5 0 1 0 15 0 a7.5 7.5 0 1 0 -15 0zM900.77 236.98 a7.5 7.5 0 1 0 15 0 a7.5 7.5 0 1 0 -15 0zM1030.68 536.98 a7.5 7.5 0 1 0 15 0 a7.5 7.5 0 1 0 -15 0zM1095.63 574.48 a7.5 7.5 0 1 0 15 0 a7.5 7.5 0 1 0 -15 0zM1095.63 649.48 a7.5 7.5 0 1 0 15 0 a7.5 7.5 0 1 0 -15 0zM1030.68 686.98 a7.5 7.5 0 1 0 15 0 a7.5 7.5 0 1 0 -15 0zM965.72 649.48 a7.5 7.5 0 1 0 15 0 a7.5 7.5 0 1 0 -15 0zM965.72 574.48 a7.5 7.5 0 1 0 15 0 a7.5 7.5 0 1 0 -15 0zM1160.58 86.98 a7.5 7.5 0 1 0 15 0 a7.5 7.5 0 1 0 -15 0zM1225.54 124.48 a7.5 7.5 0 1 0 15 0 a7.5 7.5 0 1 0 -15 0zM1225.54 199.48 a7.5 7.5 0 1 0 15 0 a7.5 7.5 0 1 0 -15 0zM1160.58 236.98 a7.5 7.5 0 1 0 15 0 a7.5 7.5 0 1 0 -15 0zM1095.63 199.48 a7.5 7.5 0 1 0 15 0 a7.5 7.5 0 1 0 -15 0zM1095.63 124.48 a7.5 7.5 0 1 0 15 0 a7.5 7.5 0 1 0 -15 0zM1160.58 536.98 a7.5 7.5 0 1 0 15 0 a7.5 7.5 0 1 0 -15 0zM1225.54 574.48 a7.5 7.5 0 1 0 15 0 a7.5 7.5 0 1 0 -15 0zM1225.54 649.48 a7.5 7.5 0 1 0 15 0 a7.5 7.5 0 1 0 -15 0zM1160.58 686.98 a7.5 7.5 0 1 0 15 0 a7.5 7.5 0 1 0 -15 0zM1290.49 86.98 a7.5 7.5 0 1 0 15 0 a7.5 7.5 0 1 0 -15 0zM1355.44 124.48 a7.5 7.5 0 1 0 15 0 a7.5 7.5 0 1 0 -15 0zM1355.44 199.48 a7.5 7.5 0 1 0 15 0 a7.5 7.5 0 1 0 -15 0zM1290.49 236.98 a7.5 7.5 0 1 0 15 0 a7.5 7.5 0 1 0 -15 0zM1290.49 536.98 a7.5 7.5 0 1 0 15 0 a7.5 7.5 0 1 0 -15 0zM1355.44 574.48 a7.5 7.5 0 1 0 15 0 a7.5 7.5 0 1 0 -15 0zM1355.44 649.48 a7.5 7.5 0 1 0 15 0 a7.5 7.5 0 1 0 -15 0zM1290.49 686.98 a7.5 7.5 0 1 0 15 0 a7.5 7.5 0 1 0 -15 0zM1420.4 311.98 a7.5 7.5 0 1 0 15 0 a7.5 7.5 0 1 0 -15 0zM1485.35 349.48 a7.5 7.5 0 1 0 15 0 a7.5 7.5 0 1 0 -15 0zM1485.35 424.48 a7.5 7.5 0 1 0 15 0 a7.5 7.5 0 1 0 -15 0zM1420.4 461.98 a7.5 7.5 0 1 0 15 0 a7.5 7.5 0 1 0 -15 0zM1355.44 424.48 a7.5 7.5 0 1 0 15 0 a7.5 7.5 0 1 0 -15 0zM1355.44 349.48 a7.5 7.5 0 1 0 15 0 a7.5 7.5 0 1 0 -15 0zM1420.4 536.98 a7.5 7.5 0 1 0 15 0 a7.5 7.5 0 1 0 -15 0zM1290.49 461.98 a7.5 7.5 0 1 0 15 0 a7.5 7.5 0 1 0 -15 0zM1485.35 -25.52 a7.5 7.5 0 1 0 15 0 a7.5 7.5 0 1 0 -15 0zM1550.31 11.98 a7.5 7.5 0 1 0 15 0 a7.5 7.5 0 1 0 -15 0zM1550.31 86.98 a7.5 7.5 0 1 0 15 0 a7.5 7.5 0 1 0 -15 0zM1485.35 124.48 a7.5 7.5 0 1 0 15 0 a7.5 7.5 0 1 0 -15 0zM1420.4 86.98 a7.5 7.5 0 1 0 15 0 a7.5 7.5 0 1 0 -15 0zM1420.4 11.98 a7.5 7.5 0 1 0 15 0 a7.5 7.5 0 1 0 -15 0z" fill="#03305d"></path><path d="M74.9 28.53L118.21 53.53L118.21 103.53L74.9 128.53L31.6 103.53L31.6 53.53zM204.81 403.53L248.11 428.53L248.11 478.53L204.81 503.53L161.51 478.53L161.51 428.53zM291.42 103.53L334.72 128.53L334.72 178.53L291.42 203.53L248.11 178.53L248.11 128.53zM334.72 178.53L378.02 203.53L378.02 253.53L334.72 278.53L291.42 253.53L291.42 203.53zM291.42 403.53L334.72 428.53L334.72 478.53L291.42 503.53L248.11 478.53L248.11 428.53zM421.32 28.53L464.63 53.53L464.63 103.53L421.32 128.53L378.02 103.53L378.02 53.53zM378.02 103.53L421.32 128.53L421.32 178.53L378.02 203.53L334.72 178.53L334.72 128.53zM421.32 478.53L464.63 503.53L464.63 553.53L421.32 578.53L378.02 553.53L378.02 503.53zM507.93 28.53L551.23 53.53L551.23 103.53L507.93 128.53L464.63 103.53L464.63 53.53zM681.14 328.53L724.44 353.53L724.44 403.53L681.14 428.53L637.84 403.53L637.84 353.53zM637.84 403.53L681.14 428.53L681.14 478.53L637.84 503.53L594.53 478.53L594.53 428.53zM724.44 253.53L767.74 278.53L767.74 328.53L724.44 353.53L681.14 328.53L681.14 278.53zM767.74 478.53L811.05 503.53L811.05 553.53L767.74 578.53L724.44 553.53L724.44 503.53zM854.35 28.53L897.65 53.53L897.65 103.53L854.35 128.53L811.05 103.53L811.05 53.53zM940.95 328.53L984.26 353.53L984.26 403.53L940.95 428.53L897.65 403.53L897.65 353.53zM1027.56 28.53L1070.86 53.53L1070.86 103.53L1027.56 128.53L984.26 103.53L984.26 53.53zM1244.07 103.53L1287.37 128.53L1287.37 178.53L1244.07 203.53L1200.77 178.53L1200.77 128.53zM1244.07 403.53L1287.37 428.53L1287.37 478.53L1244.07 503.53L1200.77 478.53L1200.77 428.53zM1373.98 178.53L1417.28 203.53L1417.28 253.53L1373.98 278.53L1330.67 253.53L1330.67 203.53zM1330.67 403.53L1373.98 428.53L1373.98 478.53L1330.67 503.53L1287.37 478.53L1287.37 428.53zM1373.98 478.53L1417.28 503.53L1417.28 553.53L1373.98 578.53L1330.67 553.53L1330.67 503.53z" stroke="rgba(6, 80, 156, 0.93)" stroke-width="2"></path></g><defs><mask id="SvgjsMask1000"><rect width="1440" height="560" fill="#ffffff"></rect></mask></defs></svg>