<svg xmlns="http://www.w3.org/2000/svg" version="1.1" xmlns:xlink="http://www.w3.org/1999/xlink" xmlns:svgjs="http://svgjs.com/svgjs" width="1440" height="560" preserveAspectRatio="none" viewBox="0 0 1440 560"><g mask="url(&quot;#SvgjsMask1000&quot;)" fill="none"><rect width="1440" height="560" x="0" y="0" fill="#0e2a47"></rect><path d="M-62.83 356.87L-62.83 356.87" stroke="#132e65" stroke-width="1.5"></path><path d="M-62.83 356.87L78.04 382.84" stroke="#132e65" stroke-width="1.5"></path><path d="M-62.83 356.87L56.02 495.83" stroke="#132e65" stroke-width="1.5"></path><path d="M-62.83 356.87L-91.16 551.94" stroke="#132e65" stroke-width="1.5"></path><path d="M-91.16 551.94L-91.16 551.94" stroke="#132e65" stroke-width="1.5"></path><path d="M-91.16 551.94L-62.27 651.44" stroke="#132e65" stroke-width="1.5"></path><path d="M-91.16 551.94L56.02 495.83" stroke="#132e65" stroke-width="1.5"></path><path d="M-91.16 551.94L49.91 679.99" stroke="#132e65" stroke-width="1.5"></path><path d="M-91.16 551.94L78.04 382.84" stroke="#132e65" stroke-width="1.5"></path><path d="M-62.27 651.44L-62.27 651.44" stroke="#132e65" stroke-width="1.5"></path><path d="M78.04 382.84L78.04 382.84" stroke="#132e65" stroke-width="1.5"></path><path d="M78.04 382.84L56.02 495.83" stroke="#132e65" stroke-width="1.5"></path><path d="M78.04 382.84L212.47 366.81" stroke="#132e65" stroke-width="1.5"></path><path d="M78.04 382.84L364.75 376.63" stroke="#132e65" stroke-width="1.5"></path><path d="M78.04 382.84L49.91 679.99" stroke="#132e65" stroke-width="1.5"></path><path d="M56.02 495.83L56.02 495.83" stroke="#132e65" stroke-width="1.5"></path><path d="M56.02 495.83L49.91 679.99" stroke="#132e65" stroke-width="1.5"></path><path d="M56.02 495.83L-62.27 651.44" stroke="#132e65" stroke-width="1.5"></path><path d="M56.02 495.83L212.47 366.81" stroke="#132e65" stroke-width="1.5"></path><path d="M49.91 679.99L49.91 679.99" stroke="#132e65" stroke-width="1.5"></path><path d="M49.91 679.99L-62.27 651.44" stroke="#132e65" stroke-width="1.5"></path><path d="M212.47 366.81L212.47 366.81" stroke="#132e65" stroke-width="1.5"></path><path d="M212.47 366.81L364.75 376.63" stroke="#132e65" stroke-width="1.5"></path><path d="M256.57 670.88L256.57 670.88" stroke="#132e65" stroke-width="1.5"></path><path d="M256.57 670.88L386.11 683.45" stroke="#132e65" stroke-width="1.5"></path><path d="M256.57 670.88L368.95 539.76" stroke="#132e65" stroke-width="1.5"></path><path d="M256.57 670.88L49.91 679.99" stroke="#132e65" stroke-width="1.5"></path><path d="M256.57 670.88L56.02 495.83" stroke="#132e65" stroke-width="1.5"></path><path d="M256.57 670.88L488.21 533.73" stroke="#132e65" stroke-width="1.5"></path><path d="M256.57 670.88L552.88 700.07" stroke="#132e65" stroke-width="1.5"></path><path d="M364.75 376.63L364.75 376.63" stroke="#132e65" stroke-width="1.5"></path><path d="M364.75 376.63L505.13 352.74" stroke="#132e65" stroke-width="1.5"></path><path d="M364.75 376.63L368.95 539.76" stroke="#132e65" stroke-width="1.5"></path><path d="M364.75 376.63L488.21 533.73" stroke="#132e65" stroke-width="1.5"></path><path d="M368.95 539.76L368.95 539.76" stroke="#132e65" stroke-width="1.5"></path><path d="M368.95 539.76L488.21 533.73" stroke="#132e65" stroke-width="1.5"></path><path d="M368.95 539.76L386.11 683.45" stroke="#132e65" stroke-width="1.5"></path><path d="M386.11 683.45L386.11 683.45" stroke="#132e65" stroke-width="1.5"></path><path d="M386.11 683.45L552.88 700.07" stroke="#132e65" stroke-width="1.5"></path><path d="M386.11 683.45L488.21 533.73" stroke="#132e65" stroke-width="1.5"></path><path d="M386.11 683.45L686.23 649.78" stroke="#132e65" stroke-width="1.5"></path><path d="M386.11 683.45L364.75 376.63" stroke="#132e65" stroke-width="1.5"></path><path d="M505.13 352.74L505.13 352.74" stroke="#132e65" stroke-width="1.5"></path><path d="M505.13 352.74L656.96 370.59" stroke="#132e65" stroke-width="1.5"></path><path d="M505.13 352.74L488.21 533.73" stroke="#132e65" stroke-width="1.5"></path><path d="M505.13 352.74L663.16 235.85" stroke="#132e65" stroke-width="1.5"></path><path d="M505.13 352.74L368.95 539.76" stroke="#132e65" stroke-width="1.5"></path><path d="M505.13 352.74L696.88 500.09" stroke="#132e65" stroke-width="1.5"></path><path d="M488.21 533.73L488.21 533.73" stroke="#132e65" stroke-width="1.5"></path><path d="M488.21 533.73L552.88 700.07" stroke="#132e65" stroke-width="1.5"></path><path d="M552.88 700.07L552.88 700.07" stroke="#132e65" stroke-width="1.5"></path><path d="M552.88 700.07L686.23 649.78" stroke="#132e65" stroke-width="1.5"></path><path d="M552.88 700.07L368.95 539.76" stroke="#132e65" stroke-width="1.5"></path><path d="M552.88 700.07L696.88 500.09" stroke="#132e65" stroke-width="1.5"></path><path d="M663.16 235.85L663.16 235.85" stroke="#132e65" stroke-width="1.5"></path><path d="M663.16 235.85L656.96 370.59" stroke="#132e65" stroke-width="1.5"></path><path d="M663.16 235.85L803.86 257.72" stroke="#132e65" stroke-width="1.5"></path><path d="M656.96 370.59L656.96 370.59" stroke="#132e65" stroke-width="1.5"></path><path d="M656.96 370.59L696.88 500.09" stroke="#132e65" stroke-width="1.5"></path><path d="M656.96 370.59L835.97 409.11" stroke="#132e65" stroke-width="1.5"></path><path d="M696.88 500.09L696.88 500.09" stroke="#132e65" stroke-width="1.5"></path><path d="M696.88 500.09L686.23 649.78" stroke="#132e65" stroke-width="1.5"></path><path d="M696.88 500.09L859.2 499.12" stroke="#132e65" stroke-width="1.5"></path><path d="M686.23 649.78L686.23 649.78" stroke="#132e65" stroke-width="1.5"></path><path d="M686.23 649.78L856.68 671.26" stroke="#132e65" stroke-width="1.5"></path><path d="M686.23 649.78L859.2 499.12" stroke="#132e65" stroke-width="1.5"></path><path d="M686.23 649.78L488.21 533.73" stroke="#132e65" stroke-width="1.5"></path><path d="M803.86 257.72L803.86 257.72" stroke="#132e65" stroke-width="1.5"></path><path d="M803.86 257.72L835.97 409.11" stroke="#132e65" stroke-width="1.5"></path><path d="M803.86 257.72L966.26 235.43" stroke="#132e65" stroke-width="1.5"></path><path d="M803.86 257.72L945.91 356.57" stroke="#132e65" stroke-width="1.5"></path><path d="M803.86 257.72L656.96 370.59" stroke="#132e65" stroke-width="1.5"></path><path d="M835.97 409.11L835.97 409.11" stroke="#132e65" stroke-width="1.5"></path><path d="M835.97 409.11L859.2 499.12" stroke="#132e65" stroke-width="1.5"></path><path d="M835.97 409.11L945.91 356.57" stroke="#132e65" stroke-width="1.5"></path><path d="M859.2 499.12L859.2 499.12" stroke="#132e65" stroke-width="1.5"></path><path d="M859.2 499.12L954.66 525.37" stroke="#132e65" stroke-width="1.5"></path><path d="M859.2 499.12L945.91 356.57" stroke="#132e65" stroke-width="1.5"></path><path d="M859.2 499.12L856.68 671.26" stroke="#132e65" stroke-width="1.5"></path><path d="M856.68 671.26L856.68 671.26" stroke="#132e65" stroke-width="1.5"></path><path d="M856.68 671.26L988.71 690.32" stroke="#132e65" stroke-width="1.5"></path><path d="M856.68 671.26L954.66 525.37" stroke="#132e65" stroke-width="1.5"></path><path d="M856.68 671.26L696.88 500.09" stroke="#132e65" stroke-width="1.5"></path><path d="M1008.45 -111.66L1008.45 -111.66" stroke="#132e65" stroke-width="1.5"></path><path d="M1008.45 -111.66L1126.33 -66.49" stroke="#132e65" stroke-width="1.5"></path><path d="M1008.45 -111.66L974.59 51.82" stroke="#132e65" stroke-width="1.5"></path><path d="M1008.45 -111.66L1117.3 59.16" stroke="#132e65" stroke-width="1.5"></path><path d="M1008.45 -111.66L1257.58 -96.03" stroke="#132e65" stroke-width="1.5"></path><path d="M1008.45 -111.66L1281.31 99.43" stroke="#132e65" stroke-width="1.5"></path><path d="M974.59 51.82L974.59 51.82" stroke="#132e65" stroke-width="1.5"></path><path d="M974.59 51.82L1117.3 59.16" stroke="#132e65" stroke-width="1.5"></path><path d="M974.59 51.82L966.26 235.43" stroke="#132e65" stroke-width="1.5"></path><path d="M966.26 235.43L966.26 235.43" stroke="#132e65" stroke-width="1.5"></path><path d="M966.26 235.43L945.91 356.57" stroke="#132e65" stroke-width="1.5"></path><path d="M966.26 235.43L1130.09 245.82" stroke="#132e65" stroke-width="1.5"></path><path d="M945.91 356.57L945.91 356.57" stroke="#132e65" stroke-width="1.5"></path><path d="M945.91 356.57L954.66 525.37" stroke="#132e65" stroke-width="1.5"></path><path d="M945.91 356.57L1117.95 392.46" stroke="#132e65" stroke-width="1.5"></path><path d="M954.66 525.37L954.66 525.37" stroke="#132e65" stroke-width="1.5"></path><path d="M954.66 525.37L835.97 409.11" stroke="#132e65" stroke-width="1.5"></path><path d="M954.66 525.37L988.71 690.32" stroke="#132e65" stroke-width="1.5"></path><path d="M988.71 690.32L988.71 690.32" stroke="#132e65" stroke-width="1.5"></path><path d="M988.71 690.32L1102.83 642.81" stroke="#132e65" stroke-width="1.5"></path><path d="M988.71 690.32L1141.93 529.29" stroke="#132e65" stroke-width="1.5"></path><path d="M988.71 690.32L859.2 499.12" stroke="#132e65" stroke-width="1.5"></path><path d="M988.71 690.32L686.23 649.78" stroke="#132e65" stroke-width="1.5"></path><path d="M1126.33 -66.49L1126.33 -66.49" stroke="#132e65" stroke-width="1.5"></path><path d="M1126.33 -66.49L1117.3 59.16" stroke="#132e65" stroke-width="1.5"></path><path d="M1126.33 -66.49L1257.58 -96.03" stroke="#132e65" stroke-width="1.5"></path><path d="M1126.33 -66.49L974.59 51.82" stroke="#132e65" stroke-width="1.5"></path><path d="M1117.3 59.16L1117.3 59.16" stroke="#132e65" stroke-width="1.5"></path><path d="M1117.3 59.16L1281.31 99.43" stroke="#132e65" stroke-width="1.5"></path><path d="M1117.3 59.16L1130.09 245.82" stroke="#132e65" stroke-width="1.5"></path><path d="M1130.09 245.82L1130.09 245.82" stroke="#132e65" stroke-width="1.5"></path><path d="M1130.09 245.82L1117.95 392.46" stroke="#132e65" stroke-width="1.5"></path><path d="M1117.95 392.46L1117.95 392.46" stroke="#132e65" stroke-width="1.5"></path><path d="M1117.95 392.46L1141.93 529.29" stroke="#132e65" stroke-width="1.5"></path><path d="M1141.93 529.29L1141.93 529.29" stroke="#132e65" stroke-width="1.5"></path><path d="M1141.93 529.29L1102.83 642.81" stroke="#132e65" stroke-width="1.5"></path><path d="M1141.93 529.29L1301.78 538.18" stroke="#132e65" stroke-width="1.5"></path><path d="M1141.93 529.29L954.66 525.37" stroke="#132e65" stroke-width="1.5"></path><path d="M1141.93 529.29L1305.04 361.04" stroke="#132e65" stroke-width="1.5"></path><path d="M1102.83 642.81L1102.83 642.81" stroke="#132e65" stroke-width="1.5"></path><path d="M1102.83 642.81L954.66 525.37" stroke="#132e65" stroke-width="1.5"></path><path d="M1102.83 642.81L1301.78 538.18" stroke="#132e65" stroke-width="1.5"></path><path d="M1257.58 -96.03L1257.58 -96.03" stroke="#132e65" stroke-width="1.5"></path><path d="M1257.58 -96.03L1424.96 -78.01" stroke="#132e65" stroke-width="1.5"></path><path d="M1257.58 -96.03L1281.31 99.43" stroke="#132e65" stroke-width="1.5"></path><path d="M1257.58 -96.03L1117.3 59.16" stroke="#132e65" stroke-width="1.5"></path><path d="M1257.58 -96.03L1413.16 84.29" stroke="#132e65" stroke-width="1.5"></path><path d="M1281.31 99.43L1281.31 99.43" stroke="#132e65" stroke-width="1.5"></path><path d="M1281.31 99.43L1413.16 84.29" stroke="#132e65" stroke-width="1.5"></path><path d="M1281.31 99.43L1394.17 216.88" stroke="#132e65" stroke-width="1.5"></path><path d="M1305.04 361.04L1305.04 361.04" stroke="#132e65" stroke-width="1.5"></path><path d="M1305.04 361.04L1416.57 368.64" stroke="#132e65" stroke-width="1.5"></path><path d="M1305.04 361.04L1394.17 216.88" stroke="#132e65" stroke-width="1.5"></path><path d="M1301.78 538.18L1301.78 538.18" stroke="#132e65" stroke-width="1.5"></path><path d="M1301.78 538.18L1422 496.53" stroke="#132e65" stroke-width="1.5"></path><path d="M1301.78 538.18L1305.04 361.04" stroke="#132e65" stroke-width="1.5"></path><path d="M1301.78 538.18L1431.67 660.25" stroke="#132e65" stroke-width="1.5"></path><path d="M1301.78 538.18L1416.57 368.64" stroke="#132e65" stroke-width="1.5"></path><path d="M1424.96 -78.01L1424.96 -78.01" stroke="#132e65" stroke-width="1.5"></path><path d="M1424.96 -78.01L1413.16 84.29" stroke="#132e65" stroke-width="1.5"></path><path d="M1424.96 -78.01L1587.09 -40.31" stroke="#132e65" stroke-width="1.5"></path><path d="M1424.96 -78.01L1606.47 57.97" stroke="#132e65" stroke-width="1.5"></path><path d="M1424.96 -78.01L1281.31 99.43" stroke="#132e65" stroke-width="1.5"></path><path d="M1413.16 84.29L1413.16 84.29" stroke="#132e65" stroke-width="1.5"></path><path d="M1413.16 84.29L1394.17 216.88" stroke="#132e65" stroke-width="1.5"></path><path d="M1394.17 216.88L1394.17 216.88" stroke="#132e65" stroke-width="1.5"></path><path d="M1394.17 216.88L1416.57 368.64" stroke="#132e65" stroke-width="1.5"></path><path d="M1416.57 368.64L1416.57 368.64" stroke="#132e65" stroke-width="1.5"></path><path d="M1416.57 368.64L1422 496.53" stroke="#132e65" stroke-width="1.5"></path><path d="M1416.57 368.64L1571.48 407.41" stroke="#132e65" stroke-width="1.5"></path><path d="M1416.57 368.64L1586.22 514.44" stroke="#132e65" stroke-width="1.5"></path><path d="M1422 496.53L1422 496.53" stroke="#132e65" stroke-width="1.5"></path><path d="M1422 496.53L1431.67 660.25" stroke="#132e65" stroke-width="1.5"></path><path d="M1422 496.53L1586.22 514.44" stroke="#132e65" stroke-width="1.5"></path><path d="M1431.67 660.25L1431.67 660.25" stroke="#132e65" stroke-width="1.5"></path><path d="M1431.67 660.25L1586.22 514.44" stroke="#132e65" stroke-width="1.5"></path><path d="M1431.67 660.25L1571.48 407.41" stroke="#132e65" stroke-width="1.5"></path><path d="M1431.67 660.25L1416.57 368.64" stroke="#132e65" stroke-width="1.5"></path><path d="M1431.67 660.25L1141.93 529.29" stroke="#132e65" stroke-width="1.5"></path><path d="M1587.09 -40.31L1587.09 -40.31" stroke="#132e65" stroke-width="1.5"></path><path d="M1587.09 -40.31L1606.47 57.97" stroke="#132e65" stroke-width="1.5"></path><path d="M1587.09 -40.31L1413.16 84.29" stroke="#132e65" stroke-width="1.5"></path><path d="M1587.09 -40.31L1600.69 204.93" stroke="#132e65" stroke-width="1.5"></path><path d="M1587.09 -40.31L1394.17 216.88" stroke="#132e65" stroke-width="1.5"></path><path d="M1606.47 57.97L1606.47 57.97" stroke="#132e65" stroke-width="1.5"></path><path d="M1606.47 57.97L1600.69 204.93" stroke="#132e65" stroke-width="1.5"></path><path d="M1600.69 204.93L1600.69 204.93" stroke="#132e65" stroke-width="1.5"></path><path d="M1600.69 204.93L1571.48 407.41" stroke="#132e65" stroke-width="1.5"></path><path d="M1600.69 204.93L1394.17 216.88" stroke="#132e65" stroke-width="1.5"></path><path d="M1600.69 204.93L1413.16 84.29" stroke="#132e65" stroke-width="1.5"></path><path d="M1600.69 204.93L1416.57 368.64" stroke="#132e65" stroke-width="1.5"></path><path d="M1571.48 407.41L1571.48 407.41" stroke="#132e65" stroke-width="1.5"></path><path d="M1571.48 407.41L1586.22 514.44" stroke="#132e65" stroke-width="1.5"></path><path d="M1571.48 407.41L1422 496.53" stroke="#132e65" stroke-width="1.5"></path><path d="M1571.48 407.41L1394.17 216.88" stroke="#132e65" stroke-width="1.5"></path><path d="M1586.22 514.44L1586.22 514.44" stroke="#132e65" stroke-width="1.5"></path><path d="M1586.22 514.44L1301.78 538.18" stroke="#132e65" stroke-width="1.5"></path><path d="M1586.22 514.44L1600.69 204.93" stroke="#132e65" stroke-width="1.5"></path><circle r="5" cx="-62.83" cy="356.87" fill="#132e65"></circle><circle r="5" cx="-91.16" cy="551.94" fill="#132e65"></circle><circle r="5" cx="-62.27" cy="651.44" fill="#132e65"></circle><circle r="5" cx="78.04" cy="382.84" fill="#132e65"></circle><circle r="5" cx="56.02" cy="495.83" fill="#132e65"></circle><circle r="5" cx="49.91" cy="679.99" fill="#132e65"></circle><circle r="5" cx="212.47" cy="366.81" fill="#132e65"></circle><circle r="5" cx="256.57" cy="670.88" fill="#132e65"></circle><circle r="5" cx="364.75" cy="376.63" fill="#132e65"></circle><circle r="5" cx="368.95" cy="539.76" fill="#132e65"></circle><circle r="5" cx="386.11" cy="683.45" fill="#132e65"></circle><circle r="5" cx="505.13" cy="352.74" fill="#132e65"></circle><circle r="5" cx="488.21" cy="533.73" fill="#132e65"></circle><circle r="5" cx="552.88" cy="700.07" fill="#132e65"></circle><circle r="5" cx="663.16" cy="235.85" fill="#132e65"></circle><circle r="5" cx="656.96" cy="370.59" fill="#132e65"></circle><circle r="5" cx="696.88" cy="500.09" fill="#132e65"></circle><circle r="5" cx="686.23" cy="649.78" fill="#132e65"></circle><circle r="5" cx="803.86" cy="257.72" fill="#132e65"></circle><circle r="5" cx="835.97" cy="409.11" fill="#132e65"></circle><circle r="5" cx="859.2" cy="499.12" fill="#132e65"></circle><circle r="5" cx="856.68" cy="671.26" fill="#132e65"></circle><circle r="5" cx="1008.45" cy="-111.66" fill="#132e65"></circle><circle r="5" cx="974.59" cy="51.82" fill="#132e65"></circle><circle r="5" cx="966.26" cy="235.43" fill="#132e65"></circle><circle r="5" cx="945.91" cy="356.57" fill="#132e65"></circle><circle r="5" cx="954.66" cy="525.37" fill="#132e65"></circle><circle r="5" cx="988.71" cy="690.32" fill="#132e65"></circle><circle r="5" cx="1126.33" cy="-66.49" fill="#132e65"></circle><circle r="5" cx="1117.3" cy="59.16" fill="#132e65"></circle><circle r="5" cx="1130.09" cy="245.82" fill="#132e65"></circle><circle r="5" cx="1117.95" cy="392.46" fill="#132e65"></circle><circle r="5" cx="1141.93" cy="529.29" fill="#132e65"></circle><circle r="5" cx="1102.83" cy="642.81" fill="#132e65"></circle><circle r="5" cx="1257.58" cy="-96.03" fill="#132e65"></circle><circle r="5" cx="1281.31" cy="99.43" fill="#132e65"></circle><circle r="5" cx="1305.04" cy="361.04" fill="#132e65"></circle><circle r="5" cx="1301.78" cy="538.18" fill="#132e65"></circle><circle r="5" cx="1424.96" cy="-78.01" fill="#132e65"></circle><circle r="5" cx="1413.16" cy="84.29" fill="#132e65"></circle><circle r="5" cx="1394.17" cy="216.88" fill="#132e65"></circle><circle r="5" cx="1416.57" cy="368.64" fill="#132e65"></circle><circle r="5" cx="1422" cy="496.53" fill="#132e65"></circle><circle r="5" cx="1431.67" cy="660.25" fill="#132e65"></circle><circle r="5" cx="1587.09" cy="-40.31" fill="#132e65"></circle><circle r="5" cx="1606.47" cy="57.97" fill="#132e65"></circle><circle r="5" cx="1600.69" cy="204.93" fill="#132e65"></circle><circle r="5" cx="1571.48" cy="407.41" fill="#132e65"></circle><circle r="5" cx="1586.22" cy="514.44" fill="#132e65"></circle><path d="M509.84 543.13L509.84 543.13" stroke="hsl(228.5, 77.2%, 51.5%)" stroke-width="1.5"></path><path d="M509.84 543.13L532.28 648.27" stroke="hsl(228.5, 77.2%, 51.5%)" stroke-width="1.5"></path><path d="M509.84 543.13L371.33 539.22" stroke="hsl(228.5, 77.2%, 51.5%)" stroke-width="1.5"></path><path d="M796.96 508.82L796.96 508.82" stroke="hsl(228.5, 77.2%, 51.5%)" stroke-width="1.5"></path><path d="M796.96 508.82L847.61 411.09" stroke="hsl(228.5, 77.2%, 51.5%)" stroke-width="1.5"></path><path d="M1132.14 704.58L1132.14 704.58" stroke="hsl(228.5, 77.2%, 51.5%)" stroke-width="1.5"></path><path d="M1132.14 704.58L989.82 698.13" stroke="hsl(228.5, 77.2%, 51.5%)" stroke-width="1.5"></path><path d="M1132.14 704.58L1312.16 642.37" stroke="hsl(228.5, 77.2%, 51.5%)" stroke-width="1.5"></path><path d="M1269.83 107.37L1269.83 107.37" stroke="hsl(228.5, 77.2%, 51.5%)" stroke-width="1.5"></path><path d="M1269.83 107.37L1268.86 214.75" stroke="hsl(228.5, 77.2%, 51.5%)" stroke-width="1.5"></path><path d="M1269.83 107.37L1111.83 202.35" stroke="hsl(228.5, 77.2%, 51.5%)" stroke-width="1.5"></path><path d="M1269.83 107.37L1457.76 92.75" stroke="hsl(228.5, 77.2%, 51.5%)" stroke-width="1.5"></path><path d="M1269.83 107.37L1299.35 -102.82" stroke="hsl(228.5, 77.2%, 51.5%)" stroke-width="1.5"></path><path d="M1269.83 107.37L1394.38 -72.76" stroke="hsl(228.5, 77.2%, 51.5%)" stroke-width="1.5"></path><path d="M1300.6 344.03L1300.6 344.03" stroke="hsl(228.5, 77.2%, 51.5%)" stroke-width="1.5"></path><path d="M1300.6 344.03L1268.86 214.75" stroke="hsl(228.5, 77.2%, 51.5%)" stroke-width="1.5"></path><path d="M1300.6 344.03L1269.79 495.91" stroke="hsl(228.5, 77.2%, 51.5%)" stroke-width="1.5"></path><path d="M1300.6 344.03L1459.86 363.97" stroke="hsl(228.5, 77.2%, 51.5%)" stroke-width="1.5"></path><path d="M1300.6 344.03L1127.84 345.33" stroke="hsl(228.5, 77.2%, 51.5%)" stroke-width="1.5"></path><path d="M1300.6 344.03L1461.51 255.56" stroke="hsl(228.5, 77.2%, 51.5%)" stroke-width="1.5"></path><path d="M1457.76 92.75L1457.76 92.75" stroke="hsl(228.5, 77.2%, 51.5%)" stroke-width="1.5"></path><path d="M1457.76 92.75L1553.09 56.57" stroke="hsl(228.5, 77.2%, 51.5%)" stroke-width="1.5"></path><path d="M1457.76 92.75L1461.51 255.56" stroke="hsl(228.5, 77.2%, 51.5%)" stroke-width="1.5"></path><path d="M1457.76 92.75L1568.78 217.28" stroke="hsl(228.5, 77.2%, 51.5%)" stroke-width="1.5"></path><path d="M-50.41 509.3L-50.41 509.3" stroke="hsl(228.5, 77.2%, 51.5%)" stroke-width="1.5"></path><path d="M-50.41 509.3L87.62 525.89" stroke="hsl(228.5, 77.2%, 51.5%)" stroke-width="1.5"></path><path d="M-50.41 509.3L-58.8 660.92" stroke="hsl(228.5, 77.2%, 51.5%)" stroke-width="1.5"></path><path d="M-50.41 509.3L212.65 550.74" stroke="hsl(228.5, 77.2%, 51.5%)" stroke-width="1.5"></path><path d="M-50.41 509.3L341.8 666.07" stroke="hsl(228.5, 77.2%, 51.5%)" stroke-width="1.5"></path><path d="M-50.41 509.3L371.33 539.22" stroke="hsl(228.5, 77.2%, 51.5%)" stroke-width="1.5"></path><path d="M-58.8 660.92L-58.8 660.92" stroke="hsl(228.5, 77.2%, 51.5%)" stroke-width="1.5"></path><path d="M87.62 525.89L87.62 525.89" stroke="hsl(228.5, 77.2%, 51.5%)" stroke-width="1.5"></path><path d="M87.62 525.89L212.65 550.74" stroke="hsl(228.5, 77.2%, 51.5%)" stroke-width="1.5"></path><path d="M87.62 525.89L-58.8 660.92" stroke="hsl(228.5, 77.2%, 51.5%)" stroke-width="1.5"></path><path d="M87.62 525.89L371.33 539.22" stroke="hsl(228.5, 77.2%, 51.5%)" stroke-width="1.5"></path><path d="M212.65 550.74L212.65 550.74" stroke="hsl(228.5, 77.2%, 51.5%)" stroke-width="1.5"></path><path d="M212.65 550.74L371.33 539.22" stroke="hsl(228.5, 77.2%, 51.5%)" stroke-width="1.5"></path><path d="M212.65 550.74L341.8 666.07" stroke="hsl(228.5, 77.2%, 51.5%)" stroke-width="1.5"></path><path d="M371.33 539.22L371.33 539.22" stroke="hsl(228.5, 77.2%, 51.5%)" stroke-width="1.5"></path><path d="M371.33 539.22L341.8 666.07" stroke="hsl(228.5, 77.2%, 51.5%)" stroke-width="1.5"></path><path d="M371.33 539.22L532.28 648.27" stroke="hsl(228.5, 77.2%, 51.5%)" stroke-width="1.5"></path><path d="M371.33 539.22L647.41 524.81" stroke="hsl(228.5, 77.2%, 51.5%)" stroke-width="1.5"></path><path d="M341.8 666.07L341.8 666.07" stroke="hsl(228.5, 77.2%, 51.5%)" stroke-width="1.5"></path><path d="M341.8 666.07L532.28 648.27" stroke="hsl(228.5, 77.2%, 51.5%)" stroke-width="1.5"></path><path d="M341.8 666.07L509.84 543.13" stroke="hsl(228.5, 77.2%, 51.5%)" stroke-width="1.5"></path><path d="M532.28 648.27L532.28 648.27" stroke="hsl(228.5, 77.2%, 51.5%)" stroke-width="1.5"></path><path d="M532.28 648.27L650.88 712.19" stroke="hsl(228.5, 77.2%, 51.5%)" stroke-width="1.5"></path><path d="M532.28 648.27L647.41 524.81" stroke="hsl(228.5, 77.2%, 51.5%)" stroke-width="1.5"></path><path d="M641.19 394.89L641.19 394.89" stroke="hsl(228.5, 77.2%, 51.5%)" stroke-width="1.5"></path><path d="M641.19 394.89L647.41 524.81" stroke="hsl(228.5, 77.2%, 51.5%)" stroke-width="1.5"></path><path d="M641.19 394.89L796.96 508.82" stroke="hsl(228.5, 77.2%, 51.5%)" stroke-width="1.5"></path><path d="M641.19 394.89L509.84 543.13" stroke="hsl(228.5, 77.2%, 51.5%)" stroke-width="1.5"></path><path d="M647.41 524.81L647.41 524.81" stroke="hsl(228.5, 77.2%, 51.5%)" stroke-width="1.5"></path><path d="M647.41 524.81L509.84 543.13" stroke="hsl(228.5, 77.2%, 51.5%)" stroke-width="1.5"></path><path d="M650.88 712.19L650.88 712.19" stroke="hsl(228.5, 77.2%, 51.5%)" stroke-width="1.5"></path><path d="M650.88 712.19L825.69 697.35" stroke="hsl(228.5, 77.2%, 51.5%)" stroke-width="1.5"></path><path d="M650.88 712.19L647.41 524.81" stroke="hsl(228.5, 77.2%, 51.5%)" stroke-width="1.5"></path><path d="M650.88 712.19L509.84 543.13" stroke="hsl(228.5, 77.2%, 51.5%)" stroke-width="1.5"></path><path d="M650.88 712.19L796.96 508.82" stroke="hsl(228.5, 77.2%, 51.5%)" stroke-width="1.5"></path><path d="M847.61 411.09L847.61 411.09" stroke="hsl(228.5, 77.2%, 51.5%)" stroke-width="1.5"></path><path d="M825.69 697.35L825.69 697.35" stroke="hsl(228.5, 77.2%, 51.5%)" stroke-width="1.5"></path><path d="M825.69 697.35L989.82 698.13" stroke="hsl(228.5, 77.2%, 51.5%)" stroke-width="1.5"></path><path d="M825.69 697.35L796.96 508.82" stroke="hsl(228.5, 77.2%, 51.5%)" stroke-width="1.5"></path><path d="M825.69 697.35L647.41 524.81" stroke="hsl(228.5, 77.2%, 51.5%)" stroke-width="1.5"></path><path d="M986.27 367.7L986.27 367.7" stroke="hsl(228.5, 77.2%, 51.5%)" stroke-width="1.5"></path><path d="M986.27 367.7L988.47 507.25" stroke="hsl(228.5, 77.2%, 51.5%)" stroke-width="1.5"></path><path d="M986.27 367.7L1127.84 345.33" stroke="hsl(228.5, 77.2%, 51.5%)" stroke-width="1.5"></path><path d="M986.27 367.7L847.61 411.09" stroke="hsl(228.5, 77.2%, 51.5%)" stroke-width="1.5"></path><path d="M988.47 507.25L988.47 507.25" stroke="hsl(228.5, 77.2%, 51.5%)" stroke-width="1.5"></path><path d="M988.47 507.25L1143.97 513.74" stroke="hsl(228.5, 77.2%, 51.5%)" stroke-width="1.5"></path><path d="M989.82 698.13L989.82 698.13" stroke="hsl(228.5, 77.2%, 51.5%)" stroke-width="1.5"></path><path d="M989.82 698.13L988.47 507.25" stroke="hsl(228.5, 77.2%, 51.5%)" stroke-width="1.5"></path><path d="M989.82 698.13L1143.97 513.74" stroke="hsl(228.5, 77.2%, 51.5%)" stroke-width="1.5"></path><path d="M1111.83 202.35L1111.83 202.35" stroke="hsl(228.5, 77.2%, 51.5%)" stroke-width="1.5"></path><path d="M1111.83 202.35L1127.84 345.33" stroke="hsl(228.5, 77.2%, 51.5%)" stroke-width="1.5"></path><path d="M1111.83 202.35L1268.86 214.75" stroke="hsl(228.5, 77.2%, 51.5%)" stroke-width="1.5"></path><path d="M1111.83 202.35L986.27 367.7" stroke="hsl(228.5, 77.2%, 51.5%)" stroke-width="1.5"></path><path d="M1111.83 202.35L1300.6 344.03" stroke="hsl(228.5, 77.2%, 51.5%)" stroke-width="1.5"></path><path d="M1127.84 345.33L1127.84 345.33" stroke="hsl(228.5, 77.2%, 51.5%)" stroke-width="1.5"></path><path d="M1127.84 345.33L1143.97 513.74" stroke="hsl(228.5, 77.2%, 51.5%)" stroke-width="1.5"></path><path d="M1127.84 345.33L1268.86 214.75" stroke="hsl(228.5, 77.2%, 51.5%)" stroke-width="1.5"></path><path d="M1127.84 345.33L1269.79 495.91" stroke="hsl(228.5, 77.2%, 51.5%)" stroke-width="1.5"></path><path d="M1143.97 513.74L1143.97 513.74" stroke="hsl(228.5, 77.2%, 51.5%)" stroke-width="1.5"></path><path d="M1143.97 513.74L1269.79 495.91" stroke="hsl(228.5, 77.2%, 51.5%)" stroke-width="1.5"></path><path d="M1143.97 513.74L1132.14 704.58" stroke="hsl(228.5, 77.2%, 51.5%)" stroke-width="1.5"></path><path d="M1143.97 513.74L1312.16 642.37" stroke="hsl(228.5, 77.2%, 51.5%)" stroke-width="1.5"></path><path d="M1143.97 513.74L986.27 367.7" stroke="hsl(228.5, 77.2%, 51.5%)" stroke-width="1.5"></path><path d="M1299.35 -102.82L1299.35 -102.82" stroke="hsl(228.5, 77.2%, 51.5%)" stroke-width="1.5"></path><path d="M1299.35 -102.82L1394.38 -72.76" stroke="hsl(228.5, 77.2%, 51.5%)" stroke-width="1.5"></path><path d="M1299.35 -102.82L1457.76 92.75" stroke="hsl(228.5, 77.2%, 51.5%)" stroke-width="1.5"></path><path d="M1299.35 -102.82L1553.09 56.57" stroke="hsl(228.5, 77.2%, 51.5%)" stroke-width="1.5"></path><path d="M1268.86 214.75L1268.86 214.75" stroke="hsl(228.5, 77.2%, 51.5%)" stroke-width="1.5"></path><path d="M1268.86 214.75L1461.51 255.56" stroke="hsl(228.5, 77.2%, 51.5%)" stroke-width="1.5"></path><path d="M1269.79 495.91L1269.79 495.91" stroke="hsl(228.5, 77.2%, 51.5%)" stroke-width="1.5"></path><path d="M1269.79 495.91L1312.16 642.37" stroke="hsl(228.5, 77.2%, 51.5%)" stroke-width="1.5"></path><path d="M1312.16 642.37L1312.16 642.37" stroke="hsl(228.5, 77.2%, 51.5%)" stroke-width="1.5"></path><path d="M1312.16 642.37L1430.48 656.81" stroke="hsl(228.5, 77.2%, 51.5%)" stroke-width="1.5"></path><path d="M1394.38 -72.76L1394.38 -72.76" stroke="hsl(228.5, 77.2%, 51.5%)" stroke-width="1.5"></path><path d="M1394.38 -72.76L1457.76 92.75" stroke="hsl(228.5, 77.2%, 51.5%)" stroke-width="1.5"></path><path d="M1394.38 -72.76L1553.09 56.57" stroke="hsl(228.5, 77.2%, 51.5%)" stroke-width="1.5"></path><path d="M1394.38 -72.76L1599.5 -40.2" stroke="hsl(228.5, 77.2%, 51.5%)" stroke-width="1.5"></path><path d="M1461.51 255.56L1461.51 255.56" stroke="hsl(228.5, 77.2%, 51.5%)" stroke-width="1.5"></path><path d="M1461.51 255.56L1459.86 363.97" stroke="hsl(228.5, 77.2%, 51.5%)" stroke-width="1.5"></path><path d="M1461.51 255.56L1568.78 217.28" stroke="hsl(228.5, 77.2%, 51.5%)" stroke-width="1.5"></path><path d="M1461.51 255.56L1540.4 370.26" stroke="hsl(228.5, 77.2%, 51.5%)" stroke-width="1.5"></path><path d="M1459.86 363.97L1459.86 363.97" stroke="hsl(228.5, 77.2%, 51.5%)" stroke-width="1.5"></path><path d="M1459.86 363.97L1540.4 370.26" stroke="hsl(228.5, 77.2%, 51.5%)" stroke-width="1.5"></path><path d="M1459.86 363.97L1431.73 543.41" stroke="hsl(228.5, 77.2%, 51.5%)" stroke-width="1.5"></path><path d="M1459.86 363.97L1568.78 217.28" stroke="hsl(228.5, 77.2%, 51.5%)" stroke-width="1.5"></path><path d="M1431.73 543.41L1431.73 543.41" stroke="hsl(228.5, 77.2%, 51.5%)" stroke-width="1.5"></path><path d="M1431.73 543.41L1430.48 656.81" stroke="hsl(228.5, 77.2%, 51.5%)" stroke-width="1.5"></path><path d="M1430.48 656.81L1430.48 656.81" stroke="hsl(228.5, 77.2%, 51.5%)" stroke-width="1.5"></path><path d="M1430.48 656.81L1562.61 657" stroke="hsl(228.5, 77.2%, 51.5%)" stroke-width="1.5"></path><path d="M1430.48 656.81L1269.79 495.91" stroke="hsl(228.5, 77.2%, 51.5%)" stroke-width="1.5"></path><path d="M1430.48 656.81L1459.86 363.97" stroke="hsl(228.5, 77.2%, 51.5%)" stroke-width="1.5"></path><path d="M1430.48 656.81L1132.14 704.58" stroke="hsl(228.5, 77.2%, 51.5%)" stroke-width="1.5"></path><path d="M1599.5 -40.2L1599.5 -40.2" stroke="hsl(228.5, 77.2%, 51.5%)" stroke-width="1.5"></path><path d="M1599.5 -40.2L1553.09 56.57" stroke="hsl(228.5, 77.2%, 51.5%)" stroke-width="1.5"></path><path d="M1599.5 -40.2L1457.76 92.75" stroke="hsl(228.5, 77.2%, 51.5%)" stroke-width="1.5"></path><path d="M1599.5 -40.2L1568.78 217.28" stroke="hsl(228.5, 77.2%, 51.5%)" stroke-width="1.5"></path><path d="M1599.5 -40.2L1299.35 -102.82" stroke="hsl(228.5, 77.2%, 51.5%)" stroke-width="1.5"></path><path d="M1599.5 -40.2L1461.51 255.56" stroke="hsl(228.5, 77.2%, 51.5%)" stroke-width="1.5"></path><path d="M1553.09 56.57L1553.09 56.57" stroke="hsl(228.5, 77.2%, 51.5%)" stroke-width="1.5"></path><path d="M1553.09 56.57L1568.78 217.28" stroke="hsl(228.5, 77.2%, 51.5%)" stroke-width="1.5"></path><path d="M1553.09 56.57L1461.51 255.56" stroke="hsl(228.5, 77.2%, 51.5%)" stroke-width="1.5"></path><path d="M1553.09 56.57L1269.83 107.37" stroke="hsl(228.5, 77.2%, 51.5%)" stroke-width="1.5"></path><path d="M1568.78 217.28L1568.78 217.28" stroke="hsl(228.5, 77.2%, 51.5%)" stroke-width="1.5"></path><path d="M1568.78 217.28L1540.4 370.26" stroke="hsl(228.5, 77.2%, 51.5%)" stroke-width="1.5"></path><path d="M1540.4 370.26L1540.4 370.26" stroke="hsl(228.5, 77.2%, 51.5%)" stroke-width="1.5"></path><path d="M1540.4 370.26L1431.73 543.41" stroke="hsl(228.5, 77.2%, 51.5%)" stroke-width="1.5"></path><path d="M1540.4 370.26L1300.6 344.03" stroke="hsl(228.5, 77.2%, 51.5%)" stroke-width="1.5"></path><path d="M1562.61 657L1562.61 657" stroke="hsl(228.5, 77.2%, 51.5%)" stroke-width="1.5"></path><path d="M1562.61 657L1431.73 543.41" stroke="hsl(228.5, 77.2%, 51.5%)" stroke-width="1.5"></path><path d="M1562.61 657L1312.16 642.37" stroke="hsl(228.5, 77.2%, 51.5%)" stroke-width="1.5"></path><path d="M1562.61 657L1540.4 370.26" stroke="hsl(228.5, 77.2%, 51.5%)" stroke-width="1.5"></path><circle r="25" cx="509.84" cy="543.13" fill="url(#SvgjsRadialGradient1001)"></circle><circle r="25" cx="796.96" cy="508.82" fill="url(#SvgjsRadialGradient1001)"></circle><circle r="25" cx="1132.14" cy="704.58" fill="url(#SvgjsRadialGradient1001)"></circle><circle r="25" cx="1269.83" cy="107.37" fill="url(#SvgjsRadialGradient1001)"></circle><circle r="25" cx="1300.6" cy="344.03" fill="url(#SvgjsRadialGradient1001)"></circle><circle r="25" cx="1457.76" cy="92.75" fill="url(#SvgjsRadialGradient1001)"></circle><circle r="5" cx="-50.41" cy="509.3" fill="#8b9ad9"></circle><circle r="5" cx="-58.8" cy="660.92" fill="#8b9ad9"></circle><circle r="5" cx="87.62" cy="525.89" fill="#8b9ad9"></circle><circle r="5" cx="212.65" cy="550.74" fill="#8b9ad9"></circle><circle r="5" cx="371.33" cy="539.22" fill="#8b9ad9"></circle><circle r="5" cx="341.8" cy="666.07" fill="#8b9ad9"></circle><circle r="5" cx="532.28" cy="648.27" fill="#8b9ad9"></circle><circle r="5" cx="641.19" cy="394.89" fill="#8b9ad9"></circle><circle r="5" cx="647.41" cy="524.81" fill="#8b9ad9"></circle><circle r="5" cx="650.88" cy="712.19" fill="#8b9ad9"></circle><circle r="5" cx="847.61" cy="411.09" fill="#8b9ad9"></circle><circle r="5" cx="825.69" cy="697.35" fill="#8b9ad9"></circle><circle r="5" cx="986.27" cy="367.7" fill="#8b9ad9"></circle><circle r="5" cx="988.47" cy="507.25" fill="#8b9ad9"></circle><circle r="5" cx="989.82" cy="698.13" fill="#8b9ad9"></circle><circle r="5" cx="1111.83" cy="202.35" fill="#8b9ad9"></circle><circle r="5" cx="1127.84" cy="345.33" fill="#8b9ad9"></circle><circle r="5" cx="1143.97" cy="513.74" fill="#8b9ad9"></circle><circle r="5" cx="1299.35" cy="-102.82" fill="#8b9ad9"></circle><circle r="5" cx="1268.86" cy="214.75" fill="#8b9ad9"></circle><circle r="5" cx="1269.79" cy="495.91" fill="#8b9ad9"></circle><circle r="5" cx="1312.16" cy="642.37" fill="#8b9ad9"></circle><circle r="5" cx="1394.38" cy="-72.76" fill="#8b9ad9"></circle><circle r="5" cx="1461.51" cy="255.56" fill="#8b9ad9"></circle><circle r="5" cx="1459.86" cy="363.97" fill="#8b9ad9"></circle><circle r="5" cx="1431.73" cy="543.41" fill="#8b9ad9"></circle><circle r="5" cx="1430.48" cy="656.81" fill="#8b9ad9"></circle><circle r="5" cx="1599.5" cy="-40.2" fill="#8b9ad9"></circle><circle r="5" cx="1553.09" cy="56.57" fill="#8b9ad9"></circle><circle r="5" cx="1568.78" cy="217.28" fill="#8b9ad9"></circle><circle r="5" cx="1540.4" cy="370.26" fill="#8b9ad9"></circle><circle r="5" cx="1562.61" cy="657" fill="#8b9ad9"></circle></g><defs><mask id="SvgjsMask1000"><rect width="1440" height="560" fill="#ffffff"></rect></mask><radialGradient id="SvgjsRadialGradient1001"><stop stop-color="#ffffff" offset="0.1"></stop><stop stop-color="#1735b3" offset="0.2"></stop><stop stop-color="rgba(23, 53, 179, 0)" offset="1"></stop></radialGradient></defs></svg>